<!DOCTYPE svg PUBLIC "-//W3C//DTD SVG 20010904//EN" "http://www.w3.org/TR/2001/REC-SVG-20010904/DTD/svg10.dtd">
<svg version="1.0" xmlns="http://www.w3.org/2000/svg" width="400px" height="418px" viewBox="0 0 4000 4180" preserveAspectRatio="xMidYMid meet">
<g id="layer1" fill="#000000" stroke="none">
 <path d="M1877 3882 c-4 -5 -11 -83 -17 -173 -6 -90 -14 -167 -19 -172 -4 -4 -104 -14 -222 -23 -118 -8 -320 -23 -449 -34 l-234 -20 -124 -47 c-79 -30 -126 -43 -130 -37 -27 41 -267 334 -274 334 -5 0 -36 -14 -69 -31 -45 -22 -60 -35 -57 -47 3 -10 57 -88 121 -175 l117 -157 -98 -71 c-53 -39 -100 -75 -104 -78 -5 -4 -28 -61 -52 -128 -42 -116 -44 -128 -51 -271 l-7 -149 67 -132 c62 -120 75 -138 144 -199 101 -90 131 -106 371 -196 180 -67 239 -83 484 -136 154 -33 283 -65 288 -72 114 -177 122 -215 112 -566 l-7 -252 -38 -31 c-33 -26 -39 -37 -44 -83 -8 -59 -3 -80 23 -113 15 -21 33 -24 194 -38 170 -16 181 -16 315 4 170 25 179 31 169 131 -4 51 -13 74 -41 115 l-35 51 0 295 0 294 116 95 c64 52 126 103 139 113 14 10 93 31 196 52 96 19 315 70 486 114 l313 79 130 122 c71 67 130 128 130 136 0 7 25 67 56 134 l57 120 -22 122 c-12 68 -26 135 -31 149 -4 14 -45 78 -90 142 -78 110 -91 123 -217 218 -131 98 -134 101 -120 123 87 132 169 278 160 287 -5 5 -26 12 -46 16 -36 5 -40 2 -187 -138 l-151 -143 -92 22 c-51 12 -249 40 -441 63 -304 35 -361 39 -435 31 -47 -5 -90 -6 -94 -2 -4 3 -14 80 -22 170 -8 90 -18 167 -22 171 -13 13 -140 23 -146 11z m975 -1514 c-17 -17 -15 -68 5 -90 20 -22 70 -23 95 -1 20 18 24 73 6 91 -9 9 64 12 330 12 188 0 342 -2 342 -5 0 -3 -37 -34 -82 -70 -81 -64 -87 -67 -284 -130 -110 -36 -341 -98 -513 -140 -185 -44 -321 -82 -335 -92 -12 -10 -77 -65 -144 -123 l-123 -105 3 -340 3 -340 40 -72 c56 -101 60 -99 -198 -113 -200 -10 -223 -9 -309 16 -29 8 -26 37 8 100 l33 61 12 321 11 321 -72 136 c-39 74 -72 135 -73 135 -1 0 -217 56 -479 124 -529 138 -532 139 -658 255 l-65 60 1229 1 c957 0 1227 -3 1218 -12z"/>
 <path d="M2217 2302 c-38 -42 -8 -102 50 -102 55 0 85 67 45 103 -25 22 -75 21 -95 -1z"/>
 <path d="M1808 2204 c-78 -42 -76 -178 2 -219 80 -41 170 16 170 108 0 98 -90 156 -172 111z"/>
 <path d="M1881 1676 c-45 -25 -64 -91 -40 -139 49 -96 189 -61 189 47 0 80 -81 130 -149 92z"/>
 <path d="M1914 590 c-59 -24 -72 -104 -25 -151 62 -62 171 -20 171 66 0 71 -74 114 -146 85z"/>
 <path d="M1656 249 c-55 -44 -19 -129 55 -129 72 0 107 86 53 129 -15 12 -39 21 -54 21 -15 0 -39 -9 -54 -21z"/>
 </g>

</svg>